<?xml version="1.0" encoding="UTF-8"?>
<svg id="_レイヤー_2" data-name="レイヤー 2" xmlns="http://www.w3.org/2000/svg" viewBox="0 0 300 300">
  <defs>
    <style>
      .cls-1 {
        fill: #fff;
      }
    </style>
  </defs>
  <g id="_レイヤー_1-2" data-name="レイヤー 1">
    <g>
      <rect width="300" height="300"/>
      <path class="cls-1" d="m208.57,141.06c-1.05-.51-2.12-.99-3.21-1.46-1.89-34.81-20.91-54.74-52.85-54.94-.14,0-.29,0-.43,0-19.1,0-34.99,8.15-44.77,22.99l17.56,12.05c7.3-11.08,18.77-13.45,27.21-13.45.1,0,.2,0,.29,0,10.52.07,18.45,3.12,23.59,9.09,3.74,4.34,6.24,10.34,7.47,17.91-9.32-1.58-19.41-2.07-30.19-1.45-30.36,1.75-49.88,19.46-48.57,44.06.67,12.48,6.88,23.22,17.51,30.23,8.98,5.93,20.55,8.83,32.58,8.17,15.88-.87,28.34-6.93,37.03-18.01,6.6-8.41,10.78-19.32,12.62-33.05,7.57,4.57,13.18,10.58,16.27,17.8,5.27,12.28,5.57,32.46-10.89,48.92-14.43,14.41-31.77,20.65-57.98,20.84-29.08-.22-51.06-9.54-65.36-27.71-13.39-17.02-20.31-41.6-20.56-73.06.26-31.46,7.18-56.04,20.56-73.06,14.3-18.17,36.29-27.5,65.36-27.71,29.29.22,51.66,9.59,66.5,27.85,7.28,8.96,12.77,20.22,16.38,33.35l20.58-5.49c-4.38-16.16-11.29-30.09-20.67-41.64-19.03-23.41-46.86-35.41-82.72-35.66h-.14c-35.79.25-63.31,12.29-81.8,35.79-16.45,20.91-24.94,50.01-25.22,86.49v.09s0,.09,0,.09c.29,36.48,8.77,65.58,25.22,86.49,18.49,23.5,46.01,35.55,81.8,35.79h.14c31.82-.22,54.24-8.55,72.72-27.01,24.17-24.15,23.44-54.42,15.48-73-5.72-13.33-16.61-24.15-31.51-31.3Zm-54.94,51.65c-13.31.75-27.13-5.22-27.82-18.02-.51-9.49,6.75-20.07,28.63-21.33,2.51-.14,4.96-.22,7.38-.22,7.95,0,15.38.77,22.14,2.25-2.52,31.49-17.31,36.6-30.34,37.32Z"/>
    </g>
  </g>
</svg>